<svg width="39" height="133" viewBox="0 0 39 133" fill="none" xmlns="http://www.w3.org/2000/svg">
<path d="M11.9036 6.345C12.2416 2.74861 15.2606 0 18.8729 0H31.9999C35.8659 0 38.9999 3.13401 38.9999 7V130C38.9999 131.657 37.6568 133 35.9999 133H3.29508C1.52734 133 0.142835 131.479 0.308247 129.719L11.9036 6.345Z" fill="url(#paint0_linear)"/>
<rect x="15.9999" y="13" width="17" height="5" rx="2.5" fill="#FFFCF8"/>
<rect x="14.9999" y="28" width="18" height="5" rx="2.5" fill="#FFFCF8"/>
<rect x="13.9999" y="43" width="19" height="5" rx="2.5" fill="#FFFCF8"/>
<rect x="9.99991" y="85" width="23" height="5" rx="2.5" fill="#FFFCF8"/>
<rect x="10.9999" y="71" width="22" height="5" rx="2.5" fill="#FFFCF8"/>
<rect x="12.9999" y="58" width="20" height="5" rx="2.5" fill="#FFFCF8"/>
<defs>
<linearGradient id="paint0_linear" x1="19.4999" y1="0" x2="19.4999" y2="133" gradientUnits="userSpaceOnUse">
<stop stop-color="#3F4245"/>
<stop offset="1" stop-color="#232427"/>
</linearGradient>
</defs>
</svg>
