<svg width="79" height="81" viewBox="0 0 79 81" fill="none" xmlns="http://www.w3.org/2000/svg">
<path d="M39.2255 77C58.8293 77 74.451 60.5061 74.451 40.5C74.451 20.4939 58.8293 4 39.2255 4C19.6217 4 4 20.4939 4 40.5C4 60.5061 19.6217 77 39.2255 77Z" fill="url(#paint0_linear)" stroke="#595959" stroke-width="8"/>
<path d="M28.3761 28.95H29.2761C29.2628 28.5567 29.1861 28.22 29.0461 27.94C28.9128 27.6533 28.7261 27.4167 28.4861 27.23C28.2528 27.0433 27.9794 26.9067 27.6661 26.82C27.3528 26.7333 27.0128 26.69 26.6461 26.69C26.3194 26.69 25.9994 26.7333 25.6861 26.82C25.3794 26.9 25.1028 27.0267 24.8561 27.2C24.6161 27.3667 24.4228 27.5833 24.2761 27.85C24.1294 28.11 24.0561 28.42 24.0561 28.78C24.0561 29.1067 24.1194 29.38 24.2461 29.6C24.3794 29.8133 24.5528 29.99 24.7661 30.13C24.9861 30.2633 25.2328 30.3733 25.5061 30.46C25.7794 30.54 26.0561 30.6133 26.3361 30.68C26.6228 30.74 26.9028 30.8 27.1761 30.86C27.4494 30.92 27.6928 31 27.9061 31.1C28.1261 31.1933 28.2994 31.3167 28.4261 31.47C28.5594 31.6233 28.6261 31.8233 28.6261 32.07C28.6261 32.33 28.5728 32.5433 28.4661 32.71C28.3594 32.8767 28.2194 33.01 28.0461 33.11C27.8728 33.2033 27.6761 33.27 27.4561 33.31C27.2428 33.35 27.0294 33.37 26.8161 33.37C26.5494 33.37 26.2894 33.3367 26.0361 33.27C25.7828 33.2033 25.5594 33.1 25.3661 32.96C25.1794 32.82 25.0261 32.6433 24.9061 32.43C24.7928 32.21 24.7361 31.95 24.7361 31.65H23.8361C23.8361 32.0833 23.9128 32.46 24.0661 32.78C24.2261 33.0933 24.4394 33.3533 24.7061 33.56C24.9794 33.76 25.2928 33.91 25.6461 34.01C26.0061 34.11 26.3861 34.16 26.7861 34.16C27.1128 34.16 27.4394 34.12 27.7661 34.04C28.0994 33.9667 28.3994 33.8467 28.6661 33.68C28.9328 33.5067 29.1494 33.2867 29.3161 33.02C29.4894 32.7467 29.5761 32.42 29.5761 32.04C29.5761 31.6867 29.5094 31.3933 29.3761 31.16C29.2494 30.9267 29.0761 30.7333 28.8561 30.58C28.6428 30.4267 28.3994 30.3067 28.1261 30.22C27.8528 30.1267 27.5728 30.0467 27.2861 29.98C27.0061 29.9133 26.7294 29.8533 26.4561 29.8C26.1828 29.74 25.9361 29.6667 25.7161 29.58C25.5028 29.4933 25.3294 29.3833 25.1961 29.25C25.0694 29.11 25.0061 28.93 25.0061 28.71C25.0061 28.4767 25.0494 28.2833 25.1361 28.13C25.2294 27.97 25.3494 27.8433 25.4961 27.75C25.6494 27.6567 25.8228 27.59 26.0161 27.55C26.2094 27.51 26.4061 27.49 26.6061 27.49C27.0994 27.49 27.5028 27.6067 27.8161 27.84C28.1361 28.0667 28.3228 28.4367 28.3761 28.95ZM32.3505 27.66V34H33.3005V27.66H35.6805V26.86H29.9705V27.66H32.3505ZM36.7847 31.05L37.9947 27.72H38.0147L39.2047 31.05H36.7847ZM37.4947 26.86L34.7147 34H35.6847L36.4847 31.85H39.5047L40.2847 34H41.3347L38.5447 26.86H37.4947ZM42.0391 26.86V34H42.9891V30.95H45.3091C45.5424 30.95 45.7291 30.9867 45.8691 31.06C46.0091 31.1267 46.1224 31.22 46.2091 31.34C46.2957 31.4533 46.3591 31.59 46.3991 31.75C46.4391 31.9033 46.4724 32.0667 46.4991 32.24C46.5324 32.4133 46.5524 32.59 46.5591 32.77C46.5657 32.95 46.5724 33.12 46.5791 33.28C46.5857 33.4333 46.5991 33.5733 46.6191 33.7C46.6457 33.8267 46.6924 33.9267 46.7591 34H47.8191C47.7191 33.88 47.6424 33.7433 47.5891 33.59C47.5424 33.43 47.5057 33.2633 47.4791 33.09C47.4524 32.9167 47.4357 32.74 47.4291 32.56C47.4224 32.38 47.4124 32.2033 47.3991 32.03C47.3791 31.8567 47.3491 31.69 47.3091 31.53C47.2757 31.37 47.2191 31.2267 47.1391 31.1C47.0657 30.9667 46.9624 30.8533 46.8291 30.76C46.7024 30.6667 46.5357 30.6 46.3291 30.56V30.54C46.7624 30.42 47.0757 30.1967 47.2691 29.87C47.4691 29.5433 47.5691 29.1633 47.5691 28.73C47.5691 28.15 47.3757 27.6933 46.9891 27.36C46.6091 27.0267 46.0791 26.86 45.3991 26.86H42.0391ZM44.9691 30.15H42.9891V27.66H45.3491C45.7957 27.66 46.1191 27.7733 46.3191 28C46.5191 28.2267 46.6191 28.52 46.6191 28.88C46.6191 29.14 46.5724 29.3533 46.4791 29.52C46.3924 29.68 46.2724 29.81 46.1191 29.91C45.9724 30.0033 45.7991 30.0667 45.5991 30.1C45.3991 30.1333 45.1891 30.15 44.9691 30.15ZM50.329 27.66V34H51.279V27.66H53.659V26.86H47.949V27.66H50.329Z" fill="#FFFCF8"/>
<path d="M31.0939 41.95H31.9939C31.9806 41.5567 31.9039 41.22 31.7639 40.94C31.6306 40.6533 31.4439 40.4167 31.2039 40.23C30.9706 40.0433 30.6973 39.9067 30.3839 39.82C30.0706 39.7333 29.7306 39.69 29.3639 39.69C29.0373 39.69 28.7173 39.7333 28.4039 39.82C28.0973 39.9 27.8206 40.0267 27.5739 40.2C27.3339 40.3667 27.1406 40.5833 26.9939 40.85C26.8473 41.11 26.7739 41.42 26.7739 41.78C26.7739 42.1067 26.8373 42.38 26.9639 42.6C27.0973 42.8133 27.2706 42.99 27.4839 43.13C27.7039 43.2633 27.9506 43.3733 28.2239 43.46C28.4973 43.54 28.7739 43.6133 29.0539 43.68C29.3406 43.74 29.6206 43.8 29.8939 43.86C30.1673 43.92 30.4106 44 30.6239 44.1C30.8439 44.1933 31.0173 44.3167 31.1439 44.47C31.2773 44.6233 31.3439 44.8233 31.3439 45.07C31.3439 45.33 31.2906 45.5433 31.1839 45.71C31.0773 45.8767 30.9373 46.01 30.7639 46.11C30.5906 46.2033 30.3939 46.27 30.1739 46.31C29.9606 46.35 29.7473 46.37 29.5339 46.37C29.2673 46.37 29.0073 46.3367 28.7539 46.27C28.5006 46.2033 28.2773 46.1 28.0839 45.96C27.8973 45.82 27.7439 45.6433 27.6239 45.43C27.5106 45.21 27.4539 44.95 27.4539 44.65H26.5539C26.5539 45.0833 26.6306 45.46 26.7839 45.78C26.9439 46.0933 27.1573 46.3533 27.4239 46.56C27.6973 46.76 28.0106 46.91 28.3639 47.01C28.7239 47.11 29.1039 47.16 29.5039 47.16C29.8306 47.16 30.1573 47.12 30.4839 47.04C30.8173 46.9667 31.1173 46.8467 31.3839 46.68C31.6506 46.5067 31.8673 46.2867 32.0339 46.02C32.2073 45.7467 32.2939 45.42 32.2939 45.04C32.2939 44.6867 32.2273 44.3933 32.0939 44.16C31.9673 43.9267 31.7939 43.7333 31.5739 43.58C31.3606 43.4267 31.1173 43.3067 30.8439 43.22C30.5706 43.1267 30.2906 43.0467 30.0039 42.98C29.7239 42.9133 29.4473 42.8533 29.1739 42.8C28.9006 42.74 28.6539 42.6667 28.4339 42.58C28.2206 42.4933 28.0473 42.3833 27.9139 42.25C27.7873 42.11 27.7239 41.93 27.7239 41.71C27.7239 41.4767 27.7673 41.2833 27.8539 41.13C27.9473 40.97 28.0673 40.8433 28.2139 40.75C28.3673 40.6567 28.5406 40.59 28.7339 40.55C28.9273 40.51 29.1239 40.49 29.3239 40.49C29.8173 40.49 30.2206 40.6067 30.5339 40.84C30.8539 41.0667 31.0406 41.4367 31.0939 41.95ZM35.0683 40.66V47H36.0183V40.66H38.3983V39.86H32.6883V40.66H35.0683ZM39.7405 43.43C39.7405 43.07 39.7872 42.7167 39.8805 42.37C39.9738 42.0167 40.1205 41.7 40.3205 41.42C40.5205 41.14 40.7772 40.9167 41.0905 40.75C41.4038 40.5767 41.7772 40.49 42.2105 40.49C42.6438 40.49 43.0172 40.5767 43.3305 40.75C43.6438 40.9167 43.9005 41.14 44.1005 41.42C44.3005 41.7 44.4472 42.0167 44.5405 42.37C44.6338 42.7167 44.6805 43.07 44.6805 43.43C44.6805 43.79 44.6338 44.1467 44.5405 44.5C44.4472 44.8467 44.3005 45.16 44.1005 45.44C43.9005 45.72 43.6438 45.9467 43.3305 46.12C43.0172 46.2867 42.6438 46.37 42.2105 46.37C41.7772 46.37 41.4038 46.2867 41.0905 46.12C40.7772 45.9467 40.5205 45.72 40.3205 45.44C40.1205 45.16 39.9738 44.8467 39.8805 44.5C39.7872 44.1467 39.7405 43.79 39.7405 43.43ZM38.7905 43.43C38.7905 43.9167 38.8605 44.3867 39.0005 44.84C39.1472 45.2867 39.3638 45.6833 39.6505 46.03C39.9372 46.3767 40.2938 46.6533 40.7205 46.86C41.1472 47.06 41.6438 47.16 42.2105 47.16C42.7772 47.16 43.2738 47.06 43.7005 46.86C44.1272 46.6533 44.4838 46.3767 44.7705 46.03C45.0572 45.6833 45.2705 45.2867 45.4105 44.84C45.5572 44.3867 45.6305 43.9167 45.6305 43.43C45.6305 42.9433 45.5572 42.4767 45.4105 42.03C45.2705 41.5767 45.0572 41.1767 44.7705 40.83C44.4838 40.4833 44.1272 40.2067 43.7005 40C43.2738 39.7933 42.7772 39.69 42.2105 39.69C41.6438 39.69 41.1472 39.7933 40.7205 40C40.2938 40.2067 39.9372 40.4833 39.6505 40.83C39.3638 41.1767 39.1472 41.5767 39.0005 42.03C38.8605 42.4767 38.7905 42.9433 38.7905 43.43ZM47.7382 43.28V40.66H49.5982C50.1382 40.66 50.5315 40.7733 50.7782 41C51.0315 41.22 51.1582 41.5433 51.1582 41.97C51.1582 42.3967 51.0315 42.7233 50.7782 42.95C50.5315 43.1767 50.1382 43.2867 49.5982 43.28H47.7382ZM46.7882 39.86V47H47.7382V44.08H49.9182C50.6382 44.0867 51.1815 43.9033 51.5482 43.53C51.9215 43.1567 52.1082 42.6367 52.1082 41.97C52.1082 41.3033 51.9215 40.7867 51.5482 40.42C51.1815 40.0467 50.6382 39.86 49.9182 39.86H46.7882Z" fill="#FFFCF8"/>
<path d="M21.9954 52.846L21.3937 59.2438L25.478 61.0454L25.5454 60.3285L22.2434 58.872L22.4515 56.6588L25.5065 58.0063L25.574 57.2895L22.519 55.9419L22.7103 53.9079L25.9876 55.3535L26.055 54.6367L21.9954 52.846Z" fill="#FFFCF8"/>
<path d="M28.1215 55.2517L27.7761 61.6684L28.5615 61.8667L28.8386 56.7171L28.8561 56.7215L31.8338 62.6927L32.7413 62.9217L33.0867 56.505L32.3014 56.3068L32.0213 61.5103L32.0038 61.5059L29.0028 55.4742L28.1215 55.2517Z" fill="#FFFCF8"/>
<path d="M39.9658 62.5921L40.181 63.4054L40.7202 63.4351L40.76 60.0514L37.9473 59.8962L37.9388 60.6161L39.9877 60.7292C39.9962 61.0238 39.9541 61.2977 39.8612 61.5507C39.7683 61.7977 39.6309 62.0123 39.4489 62.1943C39.273 62.3707 39.0556 62.5058 38.7967 62.5996C38.5379 62.6934 38.2407 62.731 37.9052 62.7125C37.5457 62.6927 37.229 62.6062 36.9551 62.453C36.6872 62.2941 36.4617 62.0925 36.2788 61.8483C36.0959 61.5981 35.9583 61.3173 35.8661 61.0061C35.7739 60.6888 35.7298 60.3622 35.7337 60.0262C35.7377 59.6842 35.7836 59.3536 35.8713 59.0342C35.959 58.7089 36.0912 58.425 36.2679 58.1826C36.4507 57.9345 36.6808 57.7401 36.9582 57.5993C37.2416 57.4589 37.578 57.3994 37.9674 57.4209C38.2071 57.4341 38.4314 57.4765 38.6404 57.548C38.8554 57.6139 39.0461 57.7085 39.2125 57.8318C39.3789 57.955 39.518 58.1098 39.6297 58.296C39.7415 58.4763 39.8169 58.6906 39.8559 58.9389L40.7096 58.986C40.6542 58.6047 40.5441 58.2774 40.3795 58.0042C40.2209 57.7253 40.0198 57.4921 39.7762 57.3045C39.5386 57.1173 39.2645 56.9761 38.9539 56.8809C38.6494 56.7801 38.3234 56.7201 37.9759 56.7009C37.4667 56.6728 37.0192 56.7442 36.6336 56.915C36.2539 57.0802 35.9335 57.3147 35.6721 57.6184C35.4168 57.9225 35.2207 58.2839 35.0839 58.7026C34.9531 59.1156 34.885 59.5561 34.8795 60.0241C34.8745 60.4441 34.9387 60.8528 35.0719 61.2504C35.2051 61.648 35.4017 62.004 35.6618 62.3186C35.9218 62.6331 36.2395 62.8908 36.6148 63.0916C36.9902 63.2864 37.4175 63.397 37.8968 63.4235C38.2742 63.4443 38.6495 63.3929 39.0227 63.2694C39.3959 63.1399 39.7102 62.9141 39.9658 62.5921Z" fill="#FFFCF8"/>
<path d="M42.4717 56.7087L42.6061 63.1333L43.457 63.0498L43.3226 56.6252L42.4717 56.7087Z" fill="#FFFCF8"/>
<path d="M46.3241 56.2083L46.6694 62.625L47.4548 62.4268L47.1776 57.2772L47.1951 57.2728L50.7272 61.6008L51.6347 61.3717L51.2893 54.955L50.504 55.1532L50.784 60.3567L50.7666 60.3611L47.2054 55.9859L46.3241 56.2083Z" fill="#FFFCF8"/>
<path d="M53.3808 54.1071L53.9826 60.5049L58.0669 58.7033L57.9995 57.9865L54.6975 59.443L54.4893 57.2298L57.5443 55.8822L57.4769 55.1654L54.4219 56.5129L54.2305 54.4789L57.5079 53.0333L57.4404 52.3164L53.3808 54.1071Z" fill="#FFFCF8"/>
<defs>
<linearGradient id="paint0_linear" x1="39.2255" y1="8" x2="39.2255" y2="73" gradientUnits="userSpaceOnUse">
<stop stop-color="#3F4245"/>
<stop offset="1" stop-color="#232427"/>
</linearGradient>
</defs>
</svg>
