<svg width="154" height="154" viewBox="0 0 154 154" fill="none" xmlns="http://www.w3.org/2000/svg">
<mask id="path-1-outside-1" maskUnits="userSpaceOnUse" x="0" y="0" width="154" height="154" fill="black">
<rect fill="white" width="154" height="154"/>
<path fill-rule="evenodd" clip-rule="evenodd" d="M101.007 84C98.7239 91.8426 92.7022 98.0928 85 100.693V138.489C113.176 134.859 135.428 112.314 138.609 84H101.007ZM70 101.007C61.8211 98.626 55.374 92.1789 52.9932 84H15.3908C18.6099 112.648 41.3515 135.39 70 138.609V101.007ZM53.3074 69H15.5114C16.2119 63.5618 17.6171 58.3443 19.6324 53.4421L29.691 47.489C37.1901 43.0508 42.3888 35.5713 43.9352 26.9957L44.4336 24.2316C53.8979 18.3783 65.0544 15 77 15C88.8952 15 100.008 18.3499 109.446 24.1577L110.055 27.5097C111.613 36.0834 116.821 43.5563 124.325 47.985L134.617 54.0584C136.499 58.7808 137.817 63.7891 138.489 69H100.693C97.3565 59.1163 88.0093 52 77 52C65.9907 52 56.6435 59.1163 53.3074 69ZM77 152C118.421 152 152 118.421 152 77C152 35.5786 118.421 2 77 2C35.5786 2 2 35.5786 2 77C2 118.421 35.5786 152 77 152ZM86 77C86 81.9706 81.9706 86 77 86C72.0294 86 68 81.9706 68 77C68 72.0294 72.0294 68 77 68C81.9706 68 86 72.0294 86 77Z"/>
</mask>
<path fill-rule="evenodd" clip-rule="evenodd" d="M101.007 84C98.7239 91.8426 92.7022 98.0928 85 100.693V138.489C113.176 134.859 135.428 112.314 138.609 84H101.007ZM70 101.007C61.8211 98.626 55.374 92.1789 52.9932 84H15.3908C18.6099 112.648 41.3515 135.39 70 138.609V101.007ZM53.3074 69H15.5114C16.2119 63.5618 17.6171 58.3443 19.6324 53.4421L29.691 47.489C37.1901 43.0508 42.3888 35.5713 43.9352 26.9957L44.4336 24.2316C53.8979 18.3783 65.0544 15 77 15C88.8952 15 100.008 18.3499 109.446 24.1577L110.055 27.5097C111.613 36.0834 116.821 43.5563 124.325 47.985L134.617 54.0584C136.499 58.7808 137.817 63.7891 138.489 69H100.693C97.3565 59.1163 88.0093 52 77 52C65.9907 52 56.6435 59.1163 53.3074 69ZM77 152C118.421 152 152 118.421 152 77C152 35.5786 118.421 2 77 2C35.5786 2 2 35.5786 2 77C2 118.421 35.5786 152 77 152ZM86 77C86 81.9706 81.9706 86 77 86C72.0294 86 68 81.9706 68 77C68 72.0294 72.0294 68 77 68C81.9706 68 86 72.0294 86 77Z" fill="url(#paint0_linear)"/>
<path d="M85 100.693L84.3604 98.7976L83 99.2568V100.693H85ZM101.007 84V82H99.5059L99.0865 83.441L101.007 84ZM85 138.489H83V140.763L85.2555 140.472L85 138.489ZM138.609 84L140.597 84.2233L140.847 82H138.609V84ZM52.9932 84L54.9135 83.441L54.4941 82H52.9932V84ZM70 101.007H72V99.5059L70.559 99.0865L70 101.007ZM15.3908 84V82H13.1535L13.4033 84.2233L15.3908 84ZM70 138.609L69.7767 140.597L72 140.847V138.609H70ZM15.5114 69L13.5278 68.7445L13.2372 71H15.5114V69ZM53.3074 69V71H54.7432L55.2024 69.6396L53.3074 69ZM19.6324 53.4421L18.6137 51.7209L18.0373 52.0621L17.7826 52.6816L19.6324 53.4421ZM29.691 47.489L28.6724 45.7678H28.6724L29.691 47.489ZM43.9352 26.9957L41.967 26.6407V26.6407L43.9352 26.9957ZM44.4336 24.2316L43.3816 22.5307L42.6236 22.9995L42.4654 23.8767L44.4336 24.2316ZM109.446 24.1577L111.414 23.8002L111.255 22.9221L110.495 22.4543L109.446 24.1577ZM110.055 27.5097L108.087 27.8671L110.055 27.5097ZM124.325 47.985L125.342 46.2625L124.325 47.985ZM134.617 54.0584L136.475 53.3179L136.222 52.6832L135.634 52.3359L134.617 54.0584ZM138.489 69V71H140.763L140.472 68.7445L138.489 69ZM100.693 69L98.7976 69.6396L99.2568 71H100.693V69ZM85.6396 102.588C93.9592 99.7794 100.461 93.0318 102.927 84.559L99.0865 83.441C96.987 90.6533 91.4452 96.4063 84.3604 98.7976L85.6396 102.588ZM83 100.693V138.489H87V100.693H83ZM85.2555 140.472C114.344 136.725 137.312 113.455 140.597 84.2233L136.622 83.7767C133.543 111.174 112.008 132.993 84.7445 136.505L85.2555 140.472ZM138.609 82H101.007V86H138.609V82ZM51.0729 84.559C53.6449 93.3946 60.6054 100.355 69.441 102.927L70.559 99.0865C63.0368 96.8968 57.1032 90.9632 54.9135 83.441L51.0729 84.559ZM52.9932 82H15.3908V86H52.9932V82ZM13.4033 84.2233C16.7266 113.8 40.2005 137.273 69.7767 140.597L70.2233 136.622C42.5026 133.507 20.4931 111.497 17.3783 83.7767L13.4033 84.2233ZM72 138.609V101.007H68V138.609H72ZM15.5114 71H53.3074V67H15.5114V71ZM17.7826 52.6816C15.7018 57.7434 14.251 63.1304 13.5278 68.7445L17.495 69.2555C18.1729 63.9932 19.5325 58.9453 21.4822 54.2025L17.7826 52.6816ZM28.6724 45.7678L18.6137 51.7209L20.651 55.1632L30.7097 49.2101L28.6724 45.7678ZM41.967 26.6407C40.5236 34.6446 35.6715 41.6255 28.6724 45.7678L30.7097 49.2101C38.7086 44.4761 44.2539 36.4979 45.9035 27.3506L41.967 26.6407ZM42.4654 23.8767L41.967 26.6407L45.9035 27.3506L46.4019 24.5866L42.4654 23.8767ZM77 13C64.6722 13 53.1528 16.4875 43.3816 22.5307L45.4856 25.9326C54.6429 20.2691 65.4366 17 77 17V13ZM110.495 22.4543C100.75 16.4581 89.2757 13 77 13V17C88.5146 17 99.266 20.2416 108.398 25.861L110.495 22.4543ZM112.023 27.1523L111.414 23.8002L107.479 24.5151L108.087 27.8671L112.023 27.1523ZM125.342 46.2625C118.338 42.1291 113.477 35.1544 112.023 27.1523L108.087 27.8671C109.749 37.0124 115.304 44.9835 123.309 49.7074L125.342 46.2625ZM135.634 52.3359L125.342 46.2625L123.309 49.7074L133.601 55.7808L135.634 52.3359ZM140.472 68.7445C139.779 63.3651 138.418 58.1941 136.475 53.3179L132.759 54.7988C134.58 59.3676 135.855 64.2131 136.505 69.2555L140.472 68.7445ZM100.693 71H138.489V67H100.693V71ZM102.588 68.3604C98.9854 57.6884 88.8932 50 77 50V54C87.1255 54 95.7277 60.5443 98.7976 69.6396L102.588 68.3604ZM77 50C65.1068 50 55.0146 57.6884 51.4124 68.3604L55.2024 69.6396C58.2723 60.5443 66.8745 54 77 54V50ZM150 77C150 117.317 117.317 150 77 150V154C119.526 154 154 119.526 154 77H150ZM77 4C117.317 4 150 36.6832 150 77H154C154 34.4741 119.526 0 77 0V4ZM4 77C4 36.6832 36.6832 4 77 4V0C34.4741 0 0 34.4741 0 77H4ZM77 150C36.6832 150 4 117.317 4 77H0C0 119.526 34.4741 154 77 154V150ZM77 88C83.0751 88 88 83.0751 88 77H84C84 80.866 80.866 84 77 84V88ZM66 77C66 83.0751 70.9249 88 77 88V84C73.134 84 70 80.866 70 77H66ZM77 66C70.9249 66 66 70.9249 66 77H70C70 73.134 73.134 70 77 70V66ZM88 77C88 70.9249 83.0751 66 77 66V70C80.866 70 84 73.134 84 77H88Z" fill="url(#paint1_linear)" mask="url(#path-1-outside-1)"/>
<circle cx="77" cy="77" r="9.65" fill="black" stroke="white" stroke-width="1.3"/>
<circle cx="77" cy="77" r="6" fill="white"/>
<path d="M71 77C71 73.6863 73.6863 71 77 71V77H71Z" fill="#0E68AF"/>
<path d="M77 77H83C83 80.3137 80.3137 83 77 83V77Z" fill="#0E68AF"/>
<defs>
<linearGradient id="paint0_linear" x1="77" y1="2" x2="77" y2="152" gradientUnits="userSpaceOnUse">
<stop stop-color="#2C2E30"/>
<stop offset="1"/>
</linearGradient>
<linearGradient id="paint1_linear" x1="77" y1="2" x2="77" y2="152" gradientUnits="userSpaceOnUse">
<stop stop-color="#181818"/>
<stop offset="1" stop-color="#343B45"/>
<stop offset="1"/>
</linearGradient>
</defs>
</svg>
